<svg xmlns="http://www.w3.org/2000/svg" version="1.1" xmlns:xlink="http://www.w3.org/1999/xlink" xmlns:svgjs="http://svgjs.dev/svgjs" width="100%" height="100%" viewBox="0 0 1000 600"><rect width="1000" height="600" x="0" y="0" fill="#f4a896"/><g><rect width="333.3333333333333" height="333.3333333333333" y="101.23007983756989" fill="#f4a896" transform="matrix(1.5821209973567647,0,0,1.5821209973567647,0,-123.84506281844837)" x="79.00784301757812"/><path d="M138.69355254417792 342.8967391201727L138.69355254417792 342.8967391201727Q123.84713577534117 342.8967391201727 117.26863731052902 336.95817241263796Q110.66454157542577 331.01960570510334 110.20379071018601 317.3762606399481L110.20379071018601 317.3762606399481Q110.12699889931271 312.12882023027305 110.07580435873052 307.5725061184577Q110.02460981814832 303.0161920066422 110.12699889931271 298.3574888136625Q110.20379071018601 293.69878562068266 110.40856887251479 288.2721643189699L110.40856887251479 288.2721643189699L124.48706753261862 288.2721643189699Q124.12870574854324 296.46329081212116 124.07751120796105 303.96329100741286Q124.02631666737885 311.48888847299565 124.48706753261862 319.21926410090714L124.48706753261862 319.21926410090714Q124.76863750582069 325.38820624106177 127.94269902191682 327.8455441890071Q131.14235780830404 330.2772848666615 138.69355254417792 330.2772848666615L138.69355254417792 330.2772848666615Q145.78399641481204 330.2772848666615 148.88126612003487 327.8455441890071Q151.95293855496664 325.38820624106177 152.3368976093331 319.21926410090714L152.3368976093331 319.21926410090714Q152.69525939340843 315.251687205787 152.74645393399067 310.61858128309837Q152.79764847457284 305.95987809011854 152.64406485282626 301.3523694377209Q152.51607850137077 296.7448607853232 152.3368976093331 292.67489480903873L152.3368976093331 292.67489480903873Q152.1321194470043 285.3028809652026 149.36761425556574 281.6168740432844Q146.60310906412718 277.9308671213663 140.3573751130993 276.36943363360933L140.3573751130993 276.36943363360933L130.11846699666015 273.8864984153729Q122.56727226078627 272.04349495441386 118.24133358159074 268.4854743839512Q113.88979763210409 264.95305108377977 112.04679417114505 258.96328983566286Q110.20379071018601 252.97352858754593 109.94781800727503 243.75851128275073L109.94781800727503 243.75851128275073Q109.84542892611063 237.76875003463377 109.89662346669283 231.26704338069496Q109.94781800727503 224.7653367267561 110.02460981814832 218.13564372136173L110.02460981814832 218.13564372136173Q110.30617979135039 209.0230154977309 113.24986587482665 203.49400511485376Q116.1935519583029 197.96499473197665 122.41368863903969 195.43086497315792Q128.63382531977646 192.89673521433926 138.69355254417792 192.89673521433926L138.69355254417792 192.89673521433926Q153.05362117748382 192.89673521433926 159.5041332908405 198.78410738129176Q165.95464540419715 204.67147954824426 166.41539626943694 218.31482461339942L166.41539626943694 218.31482461339942Q166.6201744317657 224.02301588831423 166.5177853506013 230.90868159661957Q166.41539626943694 237.76875003463377 166.23621537739922 245.31994477050765L166.23621537739922 245.31994477050765L152.055327636131 245.31994477050765Q152.3368976093331 236.8472483041543 152.3624948796242 229.93598532555782Q152.41368942020637 223.02472234696143 152.1321194470043 216.47182115244038L152.1321194470043 216.47182115244038Q151.87614674409332 210.30287901228579 148.8300715794527 207.8711383346315Q145.78399641481204 205.4138003866861 138.51437165214026 205.4138003866861L138.51437165214026 205.4138003866861Q131.21914961917736 205.4138003866861 128.14747718424562 207.8711383346315Q125.05020747902276 210.30287901228579 124.6918456949474 216.47182115244038L124.6918456949474 216.47182115244038Q124.30788664058093 223.48547321220119 124.30788664058093 230.01277713643114Q124.30788664058093 236.56567833095218 124.6918456949474 243.75851128275073L124.6918456949474 243.75851128275073Q124.87102658698508 251.66806780269994 126.89321093998181 255.40526926520025Q128.91539529297853 259.14247072770047 133.90686299974263 260.3455424313821L133.90686299974263 260.3455424313821L143.58263116977764 262.5469076764165Q152.2345085281687 264.56909202941324 157.25157350522386 268.17830714045806Q162.26863848227907 271.7619249812118 164.54679553818676 277.7516862293287Q166.79935532380335 283.7414474774456 167.08092529700548 292.67489480903873L167.08092529700548 292.67489480903873Q167.26010618904314 296.5656798932856 167.26010618904314 300.8404240318989Q167.26010618904314 305.1151681705122 167.15771710787874 309.36431503883455Q167.08092529700548 313.61346190715676 166.97853621584107 317.3762606399481L166.97853621584107 317.3762606399481Q166.41539626943694 331.01960570510334 159.93928688578916 336.95817241263796Q153.4375802318503 342.8967391201727 138.69355254417792 342.8967391201727ZM214.0775135514611 342.8967391201727L214.0775135514611 342.8967391201727Q199.0519158905867 342.8967391201727 192.42222288519235 336.77899152060036Q185.7669326095069 330.6612439210279 185.5877517174692 316.63393980150636L185.5877517174692 316.63393980150636Q185.40857082543153 302.6322329522758 185.30618174426712 290.70390499662415Q185.22938993339383 278.7755770409726 185.22938993339383 267.4871808425984Q185.22938993339383 256.19878464422425 185.30618174426712 244.44963758061036Q185.40857082543153 232.70049051699644 185.5877517174692 219.23632634387894L185.5877517174692 219.23632634387894Q185.7669326095069 205.13223041348402 192.42222288519235 199.01448281391163Q199.0519158905867 192.89673521433926 214.0775135514611 192.89673521433926L214.0775135514611 192.89673521433926Q229.0007221311712 192.89673521433926 235.57922059598337 199.01448281391163Q242.1833163310866 205.13223041348402 242.43928903399757 219.23632634387894L242.43928903399757 219.23632634387894Q242.82324808836404 232.70049051699644 242.95123443981953 244.44963758061036Q243.1048180615661 256.19878464422425 243.1048180615661 267.4871808425984Q243.1048180615661 278.7755770409726 242.95123443981953 290.70390499662415Q242.82324808836404 302.6322329522758 242.43928903399757 316.63393980150636L242.43928903399757 316.63393980150636Q242.1833163310866 330.6612439210279 235.57922059598337 336.77899152060036Q229.0007221311712 342.8967391201727 214.0775135514611 342.8967391201727ZM214.0775135514611 330.2772848666615L214.0775135514611 330.2772848666615Q221.8078891793727 330.2772848666615 224.80276980343115 327.4615851346407Q227.7976504274896 324.671482672911 227.90003950865395 317.09469066674603L227.90003950865395 317.09469066674603Q228.25840129272933 302.91380292547785 228.43758218476705 291.0366695104084Q228.61676307680472 279.13393882504795 228.61676307680472 267.99912624842034Q228.61676307680472 256.83871640150176 228.43758218476705 244.9103884458501Q228.25840129272933 232.9820604901985 227.90003950865395 218.69878366776587L227.90003950865395 218.69878366776587Q227.7976504274896 211.12199166160093 224.80276980343115 208.28069465928905Q221.8078891793727 205.4138003866861 214.0775135514611 205.4138003866861L214.0775135514611 205.4138003866861Q206.32154065325847 205.4138003866861 203.3266600292 208.28069465928905Q200.3317794051416 211.12199166160093 200.1525985131039 218.69878366776587L200.1525985131039 218.69878366776587Q199.79423672902854 232.59810143583204 199.64065310728193 244.39844304002818Q199.51266675582644 256.19878464422425 199.51266675582644 267.33359722085186Q199.51266675582644 278.49400706777055 199.64065310728193 290.52472410458654Q199.79423672902854 302.5554411414025 200.1525985131039 317.09469066674603L200.1525985131039 317.09469066674603Q200.3317794051416 324.671482672911 203.3266600292 327.4615851346407Q206.32154065325847 330.2772848666615 214.0775135514611 330.2772848666615ZM290.1781981268951 341.6168756056178L275.6133513312604 341.6168756056178L275.6133513312604 207.35919292880953L253.13894801567648 207.35919292880953L253.13894801567648 194.17659872889413L312.5758096316057 194.17659872889413L312.5758096316057 207.35919292880953L290.1781981268951 207.35919292880953L290.1781981268951 341.6168756056178ZM352.0212031501875 342.8967391201727L352.0212031501875 342.8967391201727Q341.70550322287505 342.8967391201727 335.3829774609739 340.3370120910629Q329.0604516990727 337.751687791662 326.16796015617865 332.12028832762053Q323.27546861328466 326.51448613387004 323.07069045095585 317.3762606399481L323.07069045095585 317.3762606399481Q322.81471774804487 305.03837635963896 322.71232866688047 292.67489480903873Q322.60993958571606 280.3370105287296 322.60993958571606 268.0247235187114Q322.60993958571606 255.7380337789845 322.71232866688047 243.42574676896643Q322.81471774804487 231.13905702923947 323.07069045095585 218.8779645598036L323.07069045095585 218.8779645598036Q323.27546861328466 209.56055817384393 326.16796015617865 203.85236689892915Q329.0604516990727 198.1441756240143 335.3317829203917 195.50765678403124Q341.6031141417107 192.89673521433926 351.9188140690231 192.89673521433926L351.9188140690231 192.89673521433926Q367.0468008110619 192.89673521433926 373.5229101947097 198.78410738129176Q380.0246168486486 204.67147954824426 380.5877567950527 218.31482461339942L380.5877567950527 218.31482461339942Q380.8693267682548 225.32847667316022 380.8693267682548 231.7277942459347Q380.8693267682548 238.12711181870915 380.5877567950527 245.31994477050765L380.5877567950527 245.31994477050765L365.92052091825366 245.31994477050765Q366.2020908914557 237.4871800614317 366.2020908914557 231.16465429953055Q366.2020908914557 224.8677258079205 365.92052091825366 217.1117529097178L365.92052091825366 217.1117529097178Q365.6645482153427 210.4052680934502 362.7976539427397 207.89673560492258Q359.93075967013675 205.4138003866861 351.9188140690231 205.4138003866861L351.9188140690231 205.4138003866861Q343.7276875758718 205.4138003866861 340.8095987626867 207.89673560492258Q337.91710721979257 210.4052680934502 337.6355372465905 217.1117529097178L337.6355372465905 217.1117529097178Q337.2771754625151 231.03666794807506 337.1235918407686 243.4769413095486Q336.99560548931305 255.9172146710222 336.99560548931305 267.8455426266738Q336.99560548931305 279.77387058232546 337.1235918407686 292.21414394379894Q337.2771754625151 304.65441730527255 337.6355372465905 318.57933234362974L337.6355372465905 318.57933234362974Q337.91710721979257 325.3114144301885 340.8095987626867 327.79434964842494Q343.7276875758718 330.2772848666615 352.0212031501875 330.2772848666615L352.0212031501875 330.2772848666615Q360.6730805085786 330.2772848666615 363.667961132637 327.79434964842494Q366.6628417566955 325.3114144301885 366.9444117298976 318.57933234362974L366.9444117298976 318.57933234362974Q367.0468008110619 314.07421277239655 367.072398081353 309.8762604446565Q367.1235926219353 305.67830811691647 367.072398081353 301.48035578917643Q367.0468008110619 297.2824034614363 366.9444117298976 292.7772838902031L366.9444117298976 292.7772838902031L352.30277312338956 292.7772838902031L352.30277312338956 279.51789787941436L381.33007763349457 279.51789787941436Q381.5092585255323 291.0366695104084 381.45806398495 299.97011684200163Q381.4068694443678 308.90356417359476 381.12529947116576 317.3762606399481L381.12529947116576 317.3762606399481Q380.76693768709043 331.01960570510334 374.137244681696 336.95817241263796Q367.5075516763017 342.8967391201727 352.0212031501875 342.8967391201727Z " fill="#358597" transform="matrix(1.5821209973567647,0,0,1.5821209973567647,0,-123.84506281844837)"/><path d="M524.488504936756 342.8967391201727L524.488504936756 342.8967391201727Q509.64208816791927 342.8967391201727 503.0635897031071 336.95817241263796Q496.45949396800387 331.01960570510334 495.9987431027641 317.3762606399481L495.9987431027641 317.3762606399481Q495.9219512918908 312.12882023027305 495.8707567513086 307.5725061184577Q495.8195622107264 303.0161920066422 495.9219512918908 298.3574888136625Q495.9987431027641 293.69878562068266 496.2035212650929 288.2721643189699L496.2035212650929 288.2721643189699L510.2820199251967 288.2721643189699Q509.92365814112134 296.46329081212116 509.8724636005391 303.96329100741286Q509.82126905995693 311.48888847299565 510.2820199251967 319.21926410090714L510.2820199251967 319.21926410090714Q510.5635898983988 325.38820624106177 513.7376514144948 327.8455441890071Q516.9373102008822 330.2772848666615 524.488504936756 330.2772848666615L524.488504936756 330.2772848666615Q531.5789488073901 330.2772848666615 534.6762185126129 327.8455441890071Q537.7478909475446 325.38820624106177 538.1318500019112 319.21926410090714L538.1318500019112 319.21926410090714Q538.4902117859865 315.251687205787 538.5414063265687 310.61858128309837Q538.5926008671508 305.95987809011854 538.4390172454043 301.3523694377209Q538.3110308939488 296.7448607853232 538.1318500019112 292.67489480903873L538.1318500019112 292.67489480903873Q537.9270718395824 285.3028809652026 535.1625666481439 281.6168740432844Q532.3980614567052 277.9308671213663 526.1523275056774 276.36943363360933L526.1523275056774 276.36943363360933L515.9134193892382 273.8864984153729Q508.36222465336436 272.04349495441386 504.03628597416883 268.4854743839512Q499.68475002468216 264.95305108377977 497.8417465637231 258.96328983566286Q495.9987431027641 252.97352858754593 495.7427703998531 243.75851128275073L495.7427703998531 243.75851128275073Q495.6403813186887 237.76875003463377 495.6915758592709 231.26704338069496Q495.7427703998531 224.7653367267561 495.8195622107264 218.13564372136173L495.8195622107264 218.13564372136173Q496.1011321839285 209.0230154977309 499.0448182674047 203.49400511485376Q501.988504350881 197.96499473197665 508.2086410316178 195.43086497315792Q514.4287777123545 192.89673521433926 524.488504936756 192.89673521433926L524.488504936756 192.89673521433926Q538.848573570062 192.89673521433926 545.2990856834185 198.78410738129176Q551.7495977967752 204.67147954824426 552.210348662015 218.31482461339942L552.210348662015 218.31482461339942Q552.4151268243438 224.02301588831423 552.3127377431795 230.90868159661957Q552.210348662015 237.76875003463377 552.0311677699773 245.31994477050765L552.0311677699773 245.31994477050765L537.8502800287091 245.31994477050765Q538.1318500019112 236.8472483041543 538.1574472722023 229.93598532555782Q538.2086418127844 223.02472234696143 537.9270718395824 216.47182115244038L537.9270718395824 216.47182115244038Q537.6710991366714 210.30287901228579 534.6250239720307 207.8711383346315Q531.5789488073901 205.4138003866861 524.3093240447183 205.4138003866861L524.3093240447183 205.4138003866861Q517.0141020117554 205.4138003866861 513.9424295768238 207.8711383346315Q510.84515987160086 210.30287901228579 510.4867980875255 216.47182115244038L510.4867980875255 216.47182115244038Q510.102839033159 223.48547321220119 510.102839033159 230.01277713643114Q510.102839033159 236.56567833095218 510.4867980875255 243.75851128275073L510.4867980875255 243.75851128275073Q510.66597897956314 251.66806780269994 512.68816333256 255.40526926520025Q514.7103476855566 259.14247072770047 519.7018153923207 260.3455424313821L519.7018153923207 260.3455424313821L529.3775835623558 262.5469076764165Q538.0294609207467 264.56909202941324 543.046525897802 268.17830714045806Q548.0635908748571 271.7619249812118 550.3417479307648 277.7516862293287Q552.5943077163815 283.7414474774456 552.8758776895836 292.67489480903873L552.8758776895836 292.67489480903873Q553.0550585816212 296.5656798932856 553.0550585816212 300.8404240318989Q553.0550585816212 305.1151681705122 552.9526695004568 309.36431503883455Q552.8758776895836 313.61346190715676 552.7734886084191 317.3762606399481L552.7734886084191 317.3762606399481Q552.210348662015 331.01960570510334 545.7342392783672 336.95817241263796Q539.2325326244284 342.8967391201727 524.488504936756 342.8967391201727Z " fill="#f4a896" transform="matrix(1.5821209973567647,0,0,1.5821209973567647,0,-123.84506281844837)"/></g></svg>